<!-- Generator: Adobe Illustrator 18.0.0, SVG Export Plug-In  -->
<svg version="1.1"
	 xmlns="http://www.w3.org/2000/svg" xmlns:xlink="http://www.w3.org/1999/xlink" xmlns:a="http://ns.adobe.com/AdobeSVGViewerExtensions/3.0/"
	 x="0px" y="0px" width="482.8px" height="110.2px" viewBox="0 0 482.8 110.2" enable-background="new 0 0 482.8 110.2"
	 xml:space="preserve">
<defs>
</defs>
<path fill="#FFD400" stroke="#FFFFFF" stroke-miterlimit="10" d="M241.4,109.7c-130.7,0-236.5-19.3-240.9-44l0-0.1V0.5V0.2
	C4,20.2,99,41.7,241.4,41.7c142.4,0,237.3-21.2,240.9-41.2l0,0v65.1l0,0.1C477.9,90.4,372.1,109.7,241.4,109.7"/>
<g>
	<path d="M46.3,59.6c-0.3,1.1-0.8,2-1.4,2.8c-0.6,0.8-1.4,1.4-2.3,1.8c-0.9,0.4-2,0.6-3.2,0.6c-1.2,0-2.6-0.2-4.2-0.7
		c-1-0.3-1.8-0.7-2.7-1.1c-0.8-0.5-1.6-1-2.2-1.6c-0.7-0.6-1.2-1.2-1.7-1.9c-0.5-0.7-0.8-1.4-1-2.2l4.2-1.9c0.5,1.2,1.2,2.1,2.1,2.8
		c0.9,0.7,1.9,1.2,3,1.5c0.8,0.2,1.4,0.4,1.9,0.4c0.5,0,1,0,1.3-0.1c0.4-0.1,0.7-0.3,0.9-0.5c0.2-0.2,0.4-0.6,0.6-1.1
		c0.1-0.4,0.1-0.7,0.1-1c0-0.3-0.2-0.6-0.5-1c-0.3-0.3-0.7-0.7-1.3-1.1c-0.6-0.4-1.4-0.9-2.4-1.5c-1-0.6-1.9-1.1-2.6-1.7
		c-0.8-0.6-1.4-1.2-1.9-1.9c-0.5-0.7-0.8-1.5-0.9-2.3c-0.1-0.9,0-1.8,0.3-3c0.3-1,0.8-1.9,1.5-2.6c0.7-0.7,1.5-1.2,2.4-1.6
		c0.9-0.4,1.9-0.5,3-0.5c1.1,0,2.2,0.2,3.3,0.5c0.9,0.3,1.7,0.6,2.4,1c0.7,0.4,1.4,0.9,2.1,1.4c0.6,0.6,1.2,1.1,1.6,1.7
		c0.4,0.5,0.8,1.2,1.2,2L45.4,49c-0.3-0.6-0.6-1-0.8-1.4c-0.3-0.3-0.6-0.7-0.9-1c-0.4-0.3-0.8-0.6-1.2-0.9c-0.4-0.3-0.9-0.5-1.5-0.6
		c-0.6-0.2-1.2-0.3-1.6-0.3c-0.5,0-0.8,0.1-1.1,0.2c-0.3,0.1-0.6,0.3-0.8,0.5c-0.2,0.2-0.3,0.4-0.4,0.7c-0.1,0.4-0.1,0.7-0.1,1
		c0.1,0.3,0.2,0.6,0.5,0.9c0.3,0.3,0.7,0.6,1.2,1c0.5,0.4,1.2,0.8,2.1,1.3c1.2,0.7,2.2,1.3,2.9,1.9c0.8,0.6,1.4,1.2,1.9,2
		c0.5,0.7,0.8,1.5,1,2.4C46.8,57.5,46.7,58.5,46.3,59.6"/>
	<path d="M58.8,69.7l0.3-1.2c-0.5,0.3-1.1,0.6-1.9,0.7c-0.8,0.1-1.6,0.1-2.5-0.1c-2.1-0.5-3.6-1.5-4.4-3.1c-0.8-1.6-0.9-3.7-0.3-6.3
		l2.2-9.8l4.6,1l-2.1,9.4c-0.3,1.4-0.3,2.5,0,3.2c0.3,0.7,1,1.2,2.1,1.5c1.1,0.2,1.9,0.1,2.5-0.5c0.6-0.6,1-1.5,1.3-2.8l2.1-9.5
		l4.6,1l-3.9,17.3L58.8,69.7z"/>
	<path d="M84,57.7L81.9,61c-0.8-0.6-1.6-1.1-2.5-1.5c-0.9-0.4-1.7-0.7-2.4-0.8c-0.8-0.1-1.4-0.2-1.8-0.1c-0.4,0.1-0.7,0.4-0.7,0.8
		c0,0.2,0,0.4,0,0.5c0.1,0.2,0.2,0.3,0.5,0.5c0.2,0.2,0.6,0.4,1,0.7c0.4,0.3,1,0.6,1.8,1c0.7,0.4,1.4,0.8,2.1,1.2
		c0.7,0.4,1.2,0.9,1.7,1.4c0.5,0.5,0.8,1.1,1,1.8c0.2,0.7,0.2,1.4,0.1,2.3c-0.2,1-0.5,1.8-1,2.5c-0.5,0.6-1.1,1.1-1.8,1.4
		c-0.7,0.3-1.5,0.5-2.5,0.5c-0.9,0-1.9,0-2.9-0.2c-1.3-0.2-2.6-0.6-3.9-1.2c-1.2-0.6-2.3-1.3-3.2-2.1l2.2-3.2
		c0.9,0.7,1.8,1.2,2.7,1.7c1,0.4,2,0.8,3.1,1c0.9,0.2,1.5,0.2,1.9,0c0.4-0.2,0.6-0.5,0.7-0.9c0-0.2,0-0.4,0-0.5
		c-0.1-0.2-0.2-0.3-0.4-0.5c-0.2-0.2-0.4-0.3-0.7-0.5c-0.3-0.2-0.7-0.4-1.2-0.6c-1-0.5-1.9-1-2.7-1.4c-0.8-0.5-1.5-1-2-1.5
		c-0.5-0.5-0.9-1.2-1.1-1.8c-0.2-0.7-0.2-1.5-0.1-2.4c0.2-0.9,0.5-1.7,0.9-2.3c0.5-0.6,1-1.1,1.7-1.4c0.7-0.3,1.5-0.5,2.4-0.5
		c0.9,0,1.9,0,2.9,0.2c1.1,0.2,2.2,0.5,3.3,1.1C82.2,56.4,83.2,57,84,57.7"/>
	<path d="M94.9,75.1c-0.4,0.2-1,0.4-1.7,0.5c-0.7,0.1-1.4,0.1-2.1,0c-0.7-0.1-1.3-0.3-1.9-0.7c-0.5-0.3-1-0.8-1.3-1.3
		c-0.3-0.5-0.6-1.1-0.7-1.8c-0.1-0.7-0.1-1.4,0-2.2l1.2-8.3l-3-0.4l0.6-4.3l3,0.4l0.7-4.5l5-1.6l-1,6.8l4.3,0.6l-0.6,4.3l-4.3-0.6
		L92,69.1c-0.1,0.4-0.1,0.8,0,1.1c0,0.3,0.1,0.5,0.2,0.7c0.1,0.2,0.3,0.3,0.5,0.4c0.2,0.1,0.4,0.2,0.7,0.2c0.4,0.1,0.8,0,1.3-0.1
		c0.4-0.1,1-0.4,1.6-0.8L94.9,75.1z"/>
	<path d="M109.1,70.2c-0.2-0.1-0.4-0.3-0.6-0.4c-0.2-0.1-0.4-0.2-0.7-0.3c-0.2-0.1-0.5-0.2-0.8-0.2c-0.3-0.1-0.7-0.1-1.1-0.2
		c-0.9-0.1-1.6,0-2.1,0.3c-0.5,0.3-0.8,0.9-0.9,1.6c0,0.3,0,0.6,0,0.9c0.1,0.3,0.2,0.6,0.4,0.8c0.2,0.2,0.4,0.4,0.8,0.6
		c0.3,0.2,0.7,0.3,1.2,0.4c0.4,0,0.8,0,1.1,0c0.3,0,0.7-0.1,1-0.2c0.3-0.1,0.6-0.3,0.8-0.4c0.2-0.2,0.4-0.4,0.6-0.5L109.1,70.2z
		 M108.1,77.5l0.1-1.2c-0.2,0.2-0.5,0.4-0.8,0.5c-0.3,0.1-0.6,0.3-1,0.4c-0.4,0.1-0.8,0.2-1.2,0.2c-0.4,0-0.8,0-1.2,0
		c-0.8-0.1-1.6-0.3-2.4-0.7c-0.8-0.4-1.4-0.8-2-1.4c-0.6-0.6-1-1.3-1.3-2.1c-0.3-0.8-0.4-1.8-0.2-2.9c0.1-1,0.4-1.8,0.9-2.5
		c0.5-0.7,1.1-1.2,1.8-1.6c0.7-0.4,1.5-0.7,2.4-0.8c0.9-0.1,1.9-0.1,2.9,0c0.8,0.1,1.5,0.3,2,0.5c0.5,0.2,1,0.4,1.3,0.7l0.1-0.9
		c0.1-0.7-0.1-1.2-0.5-1.7c-0.4-0.5-1-0.8-1.8-0.9c-1-0.1-1.9-0.2-2.6-0.1c-0.7,0.1-1.5,0.3-2.5,0.7l-1.4-3.4c1.2-0.5,2.3-0.8,3.4-1
		c1-0.1,2.2-0.1,3.5,0c1.1,0.1,2.1,0.4,2.9,0.8c0.9,0.4,1.6,0.9,2.1,1.5c0.6,0.6,1,1.3,1.2,2.1c0.3,0.8,0.3,1.7,0.2,2.7l-1.5,11.8
		L108.1,77.5z"/>
	<path d="M123.9,57.3c0,0.4-0.1,0.7-0.3,1c-0.2,0.3-0.4,0.6-0.7,0.8c-0.3,0.2-0.6,0.4-0.9,0.5c-0.3,0.1-0.7,0.1-1.1,0.1
		c-0.4,0-0.7-0.1-1-0.3c-0.3-0.2-0.6-0.4-0.8-0.7c-0.2-0.3-0.4-0.6-0.5-0.9c-0.1-0.3-0.1-0.7-0.1-1c0-0.4,0.1-0.7,0.3-1
		c0.2-0.3,0.4-0.6,0.7-0.8c0.3-0.2,0.6-0.4,0.9-0.5c0.3-0.1,0.7-0.1,1.1-0.1c0.4,0,0.7,0.1,1,0.3c0.3,0.2,0.6,0.4,0.8,0.7
		c0.2,0.3,0.4,0.6,0.5,0.9C123.9,56.6,123.9,56.9,123.9,57.3 M116.4,78.5l1.9-17.6l4.7,0.5L121.1,79L116.4,78.5z"/>
	<path d="M135.7,80.4l0.9-9.6c0.1-1.4,0-2.4-0.4-3.2c-0.4-0.7-1.1-1.1-2.3-1.2c-0.5,0-0.9,0-1.3,0.1c-0.4,0.1-0.7,0.3-1,0.6
		c-0.3,0.3-0.5,0.7-0.7,1.2c-0.2,0.5-0.3,1.1-0.4,1.9l-0.9,9.7l-4.7-0.4l1.7-17.7l4.7,0.4l-0.1,1.2c0.2-0.2,0.5-0.3,0.8-0.5
		c0.3-0.2,0.6-0.3,1-0.4c0.4-0.1,0.8-0.2,1.2-0.2c0.4,0,0.9,0,1.3,0c1.1,0.1,2.1,0.4,2.9,0.8c0.8,0.5,1.4,1.1,1.9,1.8
		c0.5,0.7,0.8,1.6,1,2.6c0.2,1,0.2,2.2,0.1,3.4l-0.9,10L135.7,80.4z"/>
	<path d="M154.2,74.4c-0.2-0.1-0.4-0.3-0.6-0.4c-0.2-0.1-0.4-0.2-0.7-0.3c-0.2-0.1-0.5-0.1-0.8-0.2c-0.3-0.1-0.7-0.1-1.1-0.1
		c-0.9-0.1-1.6,0.1-2.1,0.4c-0.5,0.4-0.8,0.9-0.8,1.6c0,0.3,0,0.6,0.1,0.9c0.1,0.3,0.2,0.6,0.4,0.8c0.2,0.2,0.5,0.4,0.8,0.6
		c0.3,0.2,0.8,0.3,1.2,0.3c0.4,0,0.8,0,1.1-0.1c0.3-0.1,0.7-0.2,1-0.3c0.3-0.1,0.6-0.3,0.8-0.5c0.2-0.2,0.4-0.4,0.6-0.6L154.2,74.4z
		 M153.7,81.8l0.1-1.2c-0.2,0.2-0.5,0.4-0.8,0.5c-0.3,0.2-0.6,0.3-1,0.4c-0.4,0.1-0.8,0.2-1.2,0.3c-0.4,0-0.8,0-1.2,0
		c-0.8-0.1-1.6-0.3-2.4-0.6c-0.8-0.3-1.5-0.8-2.1-1.3c-0.6-0.6-1-1.2-1.4-2.1c-0.3-0.8-0.4-1.8-0.4-2.8c0.1-1,0.3-1.8,0.8-2.5
		c0.4-0.7,1-1.3,1.7-1.7c0.7-0.4,1.5-0.8,2.4-0.9c0.9-0.2,1.9-0.2,2.9-0.2c0.8,0.1,1.5,0.2,2.1,0.4c0.5,0.2,1,0.4,1.3,0.6l0.1-0.9
		c0-0.7-0.1-1.2-0.5-1.7c-0.4-0.5-1-0.7-1.9-0.8c-1-0.1-1.9-0.1-2.6,0c-0.7,0.1-1.5,0.4-2.4,0.8l-1.6-3.4c1.2-0.6,2.3-1,3.3-1.2
		c1-0.2,2.2-0.2,3.5-0.1c1.1,0.1,2.1,0.3,2.9,0.6c0.9,0.3,1.6,0.8,2.2,1.4c0.6,0.6,1,1.3,1.3,2c0.3,0.8,0.4,1.7,0.3,2.7l-0.9,11.9
		L153.7,81.8z"/>
	<path d="M173,74.4c0.1-1.7-0.1-3-0.6-3.9c-0.5-0.9-1.2-1.4-2.2-1.4c-0.4,0-0.7,0-1,0.1c-0.3,0.1-0.5,0.1-0.8,0.3
		c-0.2,0.1-0.5,0.3-0.7,0.4c-0.2,0.2-0.4,0.4-0.6,0.6l-0.4,6.7c0.2,0.3,0.3,0.5,0.5,0.6c0.2,0.2,0.4,0.4,0.7,0.5
		c0.3,0.2,0.6,0.3,0.9,0.4c0.3,0.1,0.6,0.1,1,0.2c0.9,0.1,1.6-0.3,2.1-1C172.6,77,172.9,75.9,173,74.4 M177.8,74.6
		c-0.1,1.3-0.3,2.5-0.7,3.6c-0.4,1.1-0.9,2-1.5,2.8c-0.6,0.8-1.4,1.3-2.3,1.7c-0.9,0.4-1.9,0.6-3,0.5c-0.8,0-1.5-0.2-2.1-0.5
		c-0.6-0.3-1.2-0.7-1.6-1.1l-0.1,1l-4.7-0.3l1.3-22.3L168,58l-0.5,8c0.2-0.2,0.5-0.4,0.8-0.5c0.3-0.2,0.6-0.3,0.9-0.4
		c0.3-0.1,0.7-0.2,1-0.3c0.4-0.1,0.8-0.1,1.2-0.1c1,0.1,1.8,0.3,2.7,0.7c0.8,0.4,1.5,1,2.1,1.8c0.6,0.8,1,1.8,1.3,3
		C177.8,71.5,177.9,73,177.8,74.6"/>
	<polygon points="180.3,83.4 181.3,61.1 186.2,59 185,83.6 	"/>
	<g>
		<path d="M199.2,73.2c0-0.4-0.1-0.8-0.2-1.2c-0.1-0.4-0.3-0.7-0.6-1c-0.3-0.3-0.6-0.6-0.9-0.8c-0.4-0.2-0.8-0.3-1.4-0.3
			c-0.4,0-0.8,0.1-1.2,0.2c-0.3,0.2-0.6,0.4-0.9,0.6c-0.3,0.3-0.5,0.6-0.6,1c-0.2,0.4-0.3,0.8-0.3,1.2L199.2,73.2z M203.8,75.4
			c0,0.3,0,0.6,0,0.9c0,0.2,0,0.4-0.1,0.6l-10.7-0.4c0,0.6,0.1,1.1,0.4,1.6c0.2,0.4,0.5,0.8,0.8,1.1c0.3,0.3,0.7,0.5,1.1,0.6
			c0.4,0.1,0.8,0.2,1.3,0.2c0.3,0,0.6,0,0.9,0c0.3,0,0.6-0.1,0.9-0.2c0.3-0.1,0.5-0.2,0.8-0.4c0.2-0.1,0.4-0.3,0.6-0.5l3.3,2.9
			c-0.4,0.5-0.8,0.8-1.3,1.2c-0.5,0.3-1,0.6-1.6,0.9c-0.6,0.2-1.2,0.4-1.8,0.5c-0.6,0.1-1.2,0.1-1.8,0.1c-1,0-1.9-0.2-2.6-0.4
			c-0.8-0.3-1.5-0.6-2-1c-0.6-0.4-1.1-0.9-1.5-1.4c-0.4-0.5-0.8-1.1-1.1-1.8c-0.3-0.7-0.5-1.4-0.7-2.2c-0.1-0.8-0.2-1.7-0.2-2.7
			c0-1.4,0.3-2.6,0.7-3.7c0.4-1.1,1-2.1,1.8-2.9c0.7-0.8,1.6-1.4,2.6-1.8c1-0.4,2.1-0.6,3.2-0.6c1.2,0,2.3,0.3,3.2,0.8
			c0.9,0.5,1.7,1.2,2.3,2.1c0.6,0.9,1.1,1.9,1.4,3C203.7,72.9,203.8,74.1,203.8,75.4"/>
		<path d="M222.3,80.6c0.6,0,1.2-0.1,1.7-0.3c0.5-0.2,0.9-0.6,1.3-1.1l0.1-6.7c-0.2-0.2-0.4-0.5-0.5-0.6c-0.2-0.2-0.4-0.3-0.7-0.5
			c-0.3-0.1-0.6-0.3-0.9-0.3c-0.3-0.1-0.7-0.1-1.1-0.1c-0.9,0-1.6,0.4-2.1,1.1c-0.5,0.8-0.7,1.9-0.8,3.4c0,1.8,0.2,3.1,0.8,3.9
			C220.6,80.2,221.3,80.6,222.3,80.6 M229.9,82c0,1.7-0.2,3-0.6,4.2c-0.4,1.1-1,2.1-1.7,2.7c-0.7,0.6-1.6,1.2-2.6,1.5
			c-1,0.4-2.3,0.6-3.7,0.7l-1.3-3.7c1-0.1,1.9-0.2,2.6-0.4c0.7-0.2,1.2-0.4,1.6-0.6c0.3-0.2,0.6-0.6,0.8-1c0.2-0.4,0.3-1,0.3-1.8
			v-0.1c-0.2,0.2-0.5,0.4-0.7,0.5c-0.2,0.2-0.5,0.3-0.9,0.5c-0.3,0.2-0.7,0.3-1,0.3c-0.4,0.1-0.8,0.1-1.2,0.1c-1,0-1.9-0.2-2.7-0.6
			c-0.8-0.4-1.6-1-2.2-1.7c-0.6-0.8-1.1-1.8-1.5-3c-0.3-1.2-0.5-2.6-0.5-4.3c0-1.3,0.2-2.5,0.5-3.6c0.3-1.1,0.8-2,1.4-2.8
			c0.6-0.8,1.3-1.4,2.2-1.8c0.9-0.4,1.9-0.6,3-0.6c0.4,0,0.8,0,1.1,0.1c0.4,0.1,0.7,0.2,1.1,0.3c0.3,0.2,0.6,0.3,0.9,0.5
			c0.2,0.2,0.5,0.3,0.7,0.5l0-1l4.7,0.1L229.9,82z"/>
		<path d="M244.1,72.5c-0.4-0.3-0.8-0.6-1.3-0.8c-0.5-0.2-0.9-0.3-1.5-0.3c-1.1,0-1.9,0.3-2.4,0.9c-0.5,0.6-0.7,1.6-0.7,2.9l0,9.6
			l-4.7,0l0.1-17.7l4.7,0l0,1.2c0.2-0.2,0.4-0.4,0.7-0.6c0.3-0.2,0.6-0.4,0.9-0.5c0.3-0.2,0.7-0.3,1-0.3c0.4-0.1,0.7-0.1,1.1-0.1
			c0.8,0,1.4,0.1,2,0.4c0.6,0.3,1,0.6,1.3,0.9L244.1,72.5z"/>
		<path d="M257.3,75.8c0-0.7-0.1-1.3-0.2-1.9c-0.1-0.6-0.4-1.1-0.6-1.5c-0.3-0.4-0.6-0.8-1.1-1c-0.4-0.2-0.9-0.4-1.5-0.3
			c-0.6,0-1.1,0.1-1.5,0.4c-0.4,0.3-0.7,0.6-1,1c-0.3,0.4-0.5,0.9-0.6,1.5c-0.1,0.6-0.2,1.2-0.2,1.9c0,0.7,0.1,1.3,0.2,1.9
			c0.1,0.6,0.3,1.1,0.6,1.5c0.3,0.4,0.6,0.7,1,1c0.4,0.2,0.9,0.3,1.5,0.3c0.6,0,1.1-0.1,1.5-0.4c0.4-0.3,0.8-0.6,1-1.1
			c0.3-0.4,0.5-1,0.6-1.5C257.3,77,257.3,76.4,257.3,75.8 M262.1,75.8c0,1.4-0.2,2.6-0.6,3.8c-0.4,1.1-1,2.1-1.7,2.9
			c-0.7,0.8-1.6,1.5-2.6,1.9c-1,0.5-2.1,0.7-3.2,0.7c-1.2,0-2.3-0.2-3.2-0.6c-1-0.4-1.9-1.1-2.6-1.9c-0.7-0.8-1.3-1.8-1.7-2.9
			c-0.4-1.1-0.6-2.4-0.6-3.7c0-1.4,0.2-2.6,0.6-3.7c0.4-1.1,0.9-2.1,1.7-2.9c0.7-0.8,1.6-1.5,2.5-1.9c1-0.5,2.1-0.7,3.2-0.7
			c1.2,0,2.2,0.2,3.3,0.7c1,0.4,1.9,1.1,2.6,1.9c0.7,0.8,1.3,1.8,1.7,2.9C261.9,73.2,262.1,74.4,262.1,75.8"/>
	</g>
	<polygon points="281.3,84.2 277.4,84.3 274.4,73.7 271.9,84.4 268,84.5 262.4,66.9 267.2,66.8 269.8,76.9 272.3,66.7 276.2,66.6 
		279.2,76.7 281.4,66.4 286,66.3 	"/>
	<g>
		<path d="M298.7,82.8c-0.4,0.3-0.9,0.6-1.5,0.8c-0.6,0.2-1.3,0.4-2.1,0.4c-0.7,0-1.4-0.1-2-0.3c-0.6-0.2-1.1-0.6-1.6-1.1
			c-0.4-0.5-0.8-1-1-1.6c-0.3-0.6-0.4-1.4-0.4-2.1l-0.3-8.4l-3,0.1l-0.2-4.4l3-0.1l-0.2-4.6l4.6-2.5l0.3,6.9l4.3-0.2l0.2,4.4
			l-4.3,0.2l0.3,7.1c0,0.4,0.1,0.8,0.2,1.1c0.1,0.3,0.2,0.5,0.4,0.6c0.2,0.2,0.3,0.3,0.6,0.3c0.2,0.1,0.5,0.1,0.7,0.1
			c0.4,0,0.8-0.1,1.2-0.4c0.4-0.2,0.9-0.6,1.4-1.1L298.7,82.8z"/>
		<path d="M313.7,82.8l-0.5-9.6c-0.1-1.4-0.4-2.4-0.8-3.1c-0.5-0.6-1.3-0.9-2.4-0.9c-0.5,0-0.9,0.1-1.3,0.3
			c-0.4,0.2-0.7,0.4-0.9,0.7c-0.2,0.3-0.4,0.7-0.5,1.3c-0.1,0.5-0.1,1.2-0.1,1.9l0.5,9.7l-4.7,0.3l-1.2-22.3l4.6-2.6l0.4,8.1
			c0.2-0.2,0.4-0.4,0.7-0.6c0.3-0.2,0.6-0.4,1-0.6c0.3-0.2,0.7-0.3,1.1-0.4c0.4-0.1,0.8-0.2,1.3-0.2c1.1-0.1,2.1,0.1,3,0.4
			c0.8,0.3,1.6,0.8,2.1,1.5c0.6,0.7,1,1.5,1.3,2.5c0.3,1,0.5,2.1,0.6,3.4l0.5,10L313.7,82.8z"/>
		<path d="M343.1,64.3l-1.2,3.8c-0.9-0.4-1.9-0.7-2.8-0.8c-0.9-0.2-1.8-0.2-2.5-0.2c-0.8,0.1-1.4,0.2-1.8,0.4
			c-0.4,0.2-0.5,0.5-0.5,1c0,0.2,0.1,0.3,0.2,0.5c0.1,0.1,0.3,0.3,0.6,0.4c0.3,0.1,0.7,0.2,1.2,0.4c0.5,0.1,1.2,0.3,2,0.5
			c0.8,0.2,1.6,0.4,2.3,0.7s1.4,0.6,2,0.9c0.6,0.4,1.1,0.9,1.4,1.5c0.4,0.6,0.6,1.3,0.7,2.2c0.1,1,0,1.9-0.4,2.6
			c-0.3,0.7-0.8,1.3-1.4,1.8c-0.6,0.5-1.4,0.9-2.2,1.1c-0.9,0.3-1.8,0.4-2.8,0.5c-1.4,0.1-2.7,0-4.1-0.2c-1.3-0.3-2.5-0.7-3.6-1.2
			l1.3-3.7c1,0.5,2,0.8,3.1,1c1,0.2,2.1,0.2,3.3,0.2c0.9-0.1,1.5-0.2,1.8-0.5c0.3-0.2,0.5-0.6,0.5-1.1c0-0.2-0.1-0.4-0.2-0.5
			c-0.1-0.2-0.3-0.3-0.5-0.4c-0.2-0.1-0.5-0.2-0.8-0.3c-0.3-0.1-0.8-0.2-1.3-0.3c-1.1-0.2-2.1-0.5-3-0.7c-0.9-0.3-1.7-0.6-2.3-1
			c-0.7-0.4-1.2-0.9-1.6-1.5c-0.4-0.6-0.6-1.4-0.7-2.3c-0.1-0.9,0-1.7,0.3-2.4c0.3-0.7,0.7-1.3,1.3-1.8c0.6-0.5,1.3-0.9,2.2-1.1
			c0.9-0.3,1.8-0.4,2.9-0.5c1.1-0.1,2.3,0,3.5,0.2C341,63.5,342.1,63.9,343.1,64.3"/>
		<path d="M357.8,78.7c-0.4,0.3-0.9,0.7-1.5,0.9c-0.6,0.3-1.3,0.4-2,0.5c-0.7,0.1-1.4,0-2-0.2c-0.6-0.2-1.1-0.5-1.6-1
			c-0.5-0.4-0.8-1-1.1-1.6c-0.3-0.6-0.5-1.3-0.5-2.1l-0.8-8.3l-3,0.3l-0.4-4.4l3-0.3l-0.4-4.5l4.5-2.8l0.7,6.9l4.3-0.4l0.4,4.4
			l-4.3,0.4l0.7,7.1c0,0.4,0.1,0.8,0.2,1c0.1,0.3,0.2,0.5,0.4,0.6c0.2,0.1,0.3,0.2,0.6,0.3c0.2,0,0.5,0,0.7,0c0.4,0,0.8-0.2,1.2-0.4
			c0.4-0.3,0.8-0.6,1.3-1.2L357.8,78.7z"/>
		<path d="M371,65.6c-0.4-0.3-0.9-0.5-1.3-0.7c-0.5-0.2-1-0.2-1.5-0.2c-1.1,0.1-1.8,0.5-2.2,1.2c-0.4,0.7-0.5,1.7-0.4,3l1.1,9.5
			l-4.7,0.5l-2-17.6l4.7-0.5l0.1,1.2c0.2-0.2,0.4-0.4,0.6-0.6c0.2-0.2,0.5-0.4,0.8-0.6c0.3-0.2,0.6-0.3,1-0.5
			c0.4-0.1,0.7-0.2,1.1-0.2c0.8-0.1,1.4,0,2,0.2c0.6,0.2,1.1,0.4,1.4,0.7L371,65.6z"/>
		<path d="M383.5,68.9c-0.2-0.1-0.4-0.2-0.7-0.2c-0.2-0.1-0.5-0.1-0.7-0.1c-0.3,0-0.6,0-0.9,0c-0.3,0-0.7,0-1.1,0.1
			c-0.9,0.1-1.5,0.4-1.9,0.8c-0.4,0.4-0.6,1-0.5,1.7c0,0.3,0.1,0.6,0.3,0.9c0.1,0.3,0.3,0.5,0.6,0.7c0.2,0.2,0.5,0.3,0.9,0.4
			c0.4,0.1,0.8,0.1,1.3,0c0.4-0.1,0.7-0.1,1.1-0.3c0.3-0.1,0.6-0.3,0.9-0.5c0.3-0.2,0.5-0.4,0.7-0.6c0.2-0.2,0.3-0.4,0.4-0.7
			L383.5,68.9z M384.5,76.3l-0.2-1.2c-0.2,0.2-0.4,0.5-0.6,0.7c-0.2,0.2-0.5,0.4-0.9,0.6c-0.4,0.2-0.7,0.4-1.1,0.5
			c-0.4,0.1-0.8,0.2-1.2,0.3c-0.8,0.1-1.7,0.1-2.5-0.1c-0.8-0.2-1.6-0.4-2.3-0.9c-0.7-0.4-1.3-1-1.8-1.7c-0.5-0.7-0.8-1.6-0.9-2.7
			c-0.1-1-0.1-1.8,0.2-2.6c0.3-0.8,0.7-1.5,1.3-2c0.6-0.6,1.3-1,2.1-1.4c0.8-0.4,1.8-0.6,2.8-0.7c0.8-0.1,1.5-0.1,2.1-0.1
			c0.6,0.1,1,0.2,1.4,0.3l-0.1-0.9c-0.1-0.7-0.4-1.2-0.9-1.5c-0.5-0.4-1.2-0.5-2-0.4c-1,0.1-1.9,0.3-2.5,0.5
			c-0.6,0.2-1.4,0.6-2.2,1.2l-2.2-3c1-0.8,2-1.4,3-1.8c1-0.4,2.1-0.7,3.4-0.8c1.1-0.1,2.1-0.1,3,0c0.9,0.2,1.7,0.5,2.4,0.9
			c0.7,0.4,1.3,1,1.7,1.7c0.4,0.7,0.7,1.6,0.9,2.6l1.6,11.8L384.5,76.3z"/>
		<path d="M402.3,73c-0.3,0.4-0.8,0.7-1.4,1c-0.6,0.3-1.3,0.5-2,0.6c-0.7,0.1-1.4,0.1-2-0.1c-0.6-0.2-1.2-0.5-1.7-0.9
			c-0.5-0.4-0.9-0.9-1.2-1.5c-0.3-0.6-0.5-1.3-0.7-2.1l-1.3-8.3l-3,0.5l-0.7-4.3l3-0.5l-0.7-4.5l4.3-3l1.1,6.8l4.3-0.7l0.7,4.3
			l-4.3,0.7l1.1,7c0.1,0.4,0.2,0.8,0.3,1c0.1,0.3,0.3,0.5,0.4,0.6c0.2,0.1,0.4,0.2,0.6,0.2c0.2,0,0.5,0,0.7,0
			c0.4-0.1,0.8-0.2,1.2-0.5c0.4-0.3,0.8-0.7,1.2-1.2L402.3,73z"/>
		<path d="M414.2,60.5c-0.1-0.4-0.3-0.8-0.5-1.1c-0.2-0.4-0.5-0.7-0.8-0.9c-0.3-0.2-0.7-0.4-1.1-0.5c-0.4-0.1-0.9-0.1-1.4,0
			c-0.4,0.1-0.8,0.2-1.1,0.5c-0.3,0.2-0.6,0.5-0.7,0.8c-0.2,0.3-0.3,0.7-0.4,1.1c-0.1,0.4-0.1,0.8-0.1,1.3L414.2,60.5z M419.1,61.7
			c0.1,0.3,0.1,0.6,0.1,0.9c0,0.2,0.1,0.4,0.1,0.6l-10.5,1.9c0.2,0.6,0.4,1.1,0.7,1.4c0.3,0.4,0.6,0.7,1,0.9
			c0.4,0.2,0.8,0.3,1.2,0.4c0.4,0,0.9,0,1.3-0.1c0.3-0.1,0.6-0.1,0.9-0.2c0.3-0.1,0.5-0.2,0.8-0.4c0.3-0.2,0.5-0.3,0.7-0.5
			c0.2-0.2,0.3-0.4,0.5-0.6l3.8,2.1c-0.3,0.5-0.6,1-1,1.4c-0.4,0.4-0.9,0.8-1.4,1.2c-0.5,0.3-1.1,0.6-1.6,0.9
			c-0.6,0.2-1.2,0.4-1.7,0.5c-1,0.2-1.9,0.2-2.7,0.1c-0.8-0.1-1.5-0.3-2.2-0.6c-0.7-0.3-1.3-0.6-1.8-1.1c-0.5-0.4-1-0.9-1.5-1.5
			c-0.4-0.6-0.8-1.2-1.1-2c-0.3-0.8-0.6-1.6-0.8-2.6c-0.3-1.3-0.3-2.6-0.1-3.8c0.2-1.2,0.6-2.3,1.1-3.2c0.6-0.9,1.3-1.7,2.1-2.3
			c0.9-0.6,1.9-1,3-1.2c1.2-0.2,2.3-0.2,3.3,0.1c1,0.3,1.9,0.8,2.7,1.5c0.8,0.7,1.5,1.6,2,2.6C418.5,59.3,418.9,60.4,419.1,61.7"/>
		<path d="M430.1,64.2c0.6-0.1,1.1-0.4,1.5-0.7c0.4-0.3,0.7-0.8,1-1.4l-1.6-6.5c-0.2-0.2-0.5-0.4-0.7-0.5c-0.2-0.1-0.5-0.2-0.8-0.3
			c-0.3-0.1-0.6-0.1-0.9-0.1c-0.3,0-0.7,0-1.1,0.1c-0.9,0.2-1.5,0.7-1.8,1.6c-0.3,0.8-0.3,2,0.1,3.5c0.4,1.7,1,2.9,1.7,3.6
			C428.3,64.2,429.1,64.4,430.1,64.2 M437.8,63.7c0.4,1.6,0.5,3,0.4,4.2c-0.1,1.2-0.4,2.2-1,3.1c-0.5,0.8-1.2,1.5-2.1,2.1
			c-0.9,0.6-2.1,1.2-3.5,1.6l-2.2-3.3c1-0.3,1.8-0.6,2.4-1c0.6-0.3,1.1-0.7,1.4-1c0.3-0.3,0.4-0.7,0.5-1.2c0.1-0.5,0-1.1-0.1-1.8
			l0-0.1c-0.2,0.2-0.4,0.5-0.6,0.7c-0.2,0.2-0.4,0.4-0.7,0.7s-0.6,0.4-0.9,0.6c-0.3,0.2-0.7,0.3-1.1,0.4c-0.9,0.2-1.9,0.2-2.8,0.1
			c-0.9-0.2-1.8-0.6-2.6-1.2c-0.8-0.6-1.5-1.4-2.1-2.5c-0.6-1.1-1.1-2.4-1.5-4c-0.3-1.3-0.4-2.5-0.4-3.6c0-1.2,0.3-2.2,0.7-3.1
			c0.4-0.9,1-1.7,1.7-2.3c0.7-0.6,1.7-1.1,2.7-1.3c0.4-0.1,0.7-0.1,1.1-0.2c0.4,0,0.8,0,1.1,0.1c0.4,0.1,0.7,0.1,1,0.2
			c0.3,0.1,0.5,0.2,0.8,0.3l-0.2-1l4.6-1.1L437.8,63.7z"/>
	</g>
	<polygon points="452.7,68.7 448.3,70.1 448.6,63.4 436.4,48.7 441.4,47.1 449,57.2 449.2,44.6 454,43.1 	"/>
</g>
</svg>
